<svg xmlns="http://www.w3.org/2000/svg" xmlns:xlink="http://www.w3.org/1999/xlink" version="1.1" width="1000" height="1000" viewBox="0 0 1000 1000" xml:space="preserve">
<desc>Created with Fabric.js 3.5.0</desc>
<defs>
</defs>
<rect x="0" y="0" width="100%" height="100%" fill="#ffffff"/>
<g transform="matrix(1 0 0 1 500 290.615)" style="" id="163009">
		
<path xml:space="preserve" font-family="Qwigley" font-size="71" font-style="normal" font-weight="normal" style="stroke: none; stroke-width: 1; stroke-dasharray: none; stroke-linecap: butt; stroke-dashoffset: 0; stroke-linejoin: miter; stroke-miterlimit: 4; is-custom-font: none; font-file-url: none; fill: rgb(255,200,0); fill-rule: nonzero; opacity: 1; white-space: pre;" d="M-94.54 28.13L-94.54 28.13L-94.39 28.98Q-94.39 29.26-94.68 29.26L-94.68 29.26Q-96.67 29.26-96.67 26.07L-96.67 26.07Q-96.67 19.89-91.73 10.20Q-86.80 0.51-79.34-8.23L-79.34-8.23L-79.34-8.30Q-96.60-6.88-105.97-0.06L-105.97-0.06Q-106.11 0.08-106.39 0.08L-106.39 0.08Q-107.53 0.08-107.53-1.69Q-107.53-3.47-104.62-4.89L-104.62-4.89Q-92.34-10.71-78.21-10.71L-78.21-10.71Q-69.19-10.71-64.08-8.08Q-58.97-5.46-58.97-0.70Q-58.97 4.06-65.82 7.96Q-72.67 11.87-79.77 11.87L-79.77 11.87Q-83.67 11.87-87.58 10.45L-87.58 10.45Q-89.85 13.64-92.19 19.57Q-94.54 25.50-94.54 28.13ZM-60.46-2.48L-60.46-2.48Q-60.46-8.30-78.14-8.30L-78.14-8.30Q-76.29-7.16-76.29-7.02L-76.29-7.02Q-87.15 8.25-87.15 9.45L-87.15 9.45Q-85.73 9.88-82.36 9.88Q-78.99 9.88-73.63 8.07Q-68.27 6.26-64.36 3.31Q-60.46 0.36-60.46-2.48ZM-45.76 13.43L-45.76 13.43Q-45.33 13.43-45.33 13.75Q-45.33 14.07-45.48 14.35L-45.48 14.35Q-52.93 25.21-57.83 25.21L-57.83 25.21Q-63.86 25.21-63.86 19.61L-63.86 19.61Q-63.86 15.27-59.57 9.10Q-55.27 2.92-51.23 2.92L-51.23 2.92Q-49.52 2.92-48.21 4.02Q-46.90 5.12-46.90 6.68L-46.90 6.68Q-46.90 9.38-50.23 12.01Q-53.57 14.64-56.69 14.64L-56.69 14.64Q-57.33 14.64-57.33 14.35L-57.33 14.35L-57.12 14.00Q-48.95 11.44-48.95 5.62L-48.95 5.62Q-48.95 4.77-49.52 4.77L-49.52 4.77Q-50.37 4.77-52.36 6.40L-52.36 6.40Q-55.84 9.24-58.40 13.50Q-60.95 17.76-60.95 20.67Q-60.95 23.58-58.75 23.58L-58.75 23.58Q-56.27 23.58-53.14 20.95L-53.14 20.95Q-51.16 19.11-48.49 16.27Q-45.83 13.43-45.76 13.43ZM-38.38-4.32L-38.38-4.32L-39.80-3.97Q-40.01-3.97-40.01-4.18L-40.01-4.18Q-40.01-4.75-39.16-5.07Q-38.30-5.39-37.88-5.39L-37.88-5.39Q-34.75-5.39-34.75-1.84L-34.75-1.84Q-34.75 0.29-36.03 3.56L-36.03 3.56Q-35.75 3.84-33.48 3.84Q-31.20 3.84-29.93 3.31Q-28.65 2.78-28.40 2.78Q-28.15 2.78-28.15 2.99Q-28.15 3.20-28.44 3.49L-28.44 3.49Q-31.77 6.33-36.60 6.97L-36.60 6.97Q-37.03 6.97-37.59 7.18L-37.59 7.18Q-44.06 20.10-44.06 23.51L-44.06 23.51Q-44.06 24.65-43.20 24.65L-43.20 24.65L-41.22 24.22L-41.14 24.29Q-41.14 25.78-43.49 25.78L-43.49 25.78Q-46.61 25.78-46.61 22.45L-46.61 22.45Q-46.61 19.61-44.62 14.56L-44.62 14.56Q-43.49 12.01-41.29 6.75L-41.29 6.75Q-43.70 5.76-43.70 3.99L-43.70 3.99Q-43.70 3.42-43.42 3.20L-43.42 3.20Q-42.28 3.70-40.15 3.91L-40.15 3.91Q-37.81-1.27-37.81-2.79Q-37.81-4.32-38.38-4.32ZM-16.93 13.43L-16.93 13.43Q-16.51 13.43-16.51 13.75Q-16.51 14.07-16.65 14.35L-16.65 14.35Q-24.10 25.21-29.00 25.21L-29.00 25.21Q-35.04 25.21-35.04 19.61L-35.04 19.61Q-35.04 15.27-30.74 9.10Q-26.45 2.92-22.40 2.92L-22.40 2.92Q-20.70 2.92-19.38 4.02Q-18.07 5.12-18.07 6.68L-18.07 6.68Q-18.07 9.38-21.41 12.01Q-24.74 14.64-27.87 14.64L-27.87 14.64Q-28.51 14.64-28.51 14.35L-28.51 14.35L-28.29 14.00Q-20.13 11.44-20.13 5.62L-20.13 5.62Q-20.13 4.77-20.70 4.77L-20.70 4.77Q-21.55 4.77-23.54 6.40L-23.54 6.40Q-27.02 9.24-29.57 13.50Q-32.13 17.76-32.13 20.67Q-32.13 23.58-29.93 23.58L-29.93 23.58Q-27.44 23.58-24.32 20.95L-24.32 20.95Q-22.33 19.11-19.67 16.27Q-17.00 13.43-16.93 13.43ZM3.51 2.99L3.51 2.99Q3.51 2.71 2.73 3.77L2.73 3.77Q0.04 7.54-0.18 9.31L-0.18 9.31Q-0.18 11.23 1.17 11.65L1.17 11.65Q1.67 11.80 1.67 11.87L1.67 11.87Q1.67 12.43 0.28 12.43Q-1.10 12.43-2.09 11.33Q-3.09 10.23-3.09 8.85Q-3.09 7.46-2.73 6.47L-2.73 6.47Q-6.21 9.24-8.52 12.15Q-10.83 15.06-11.68 17.19Q-12.53 19.32-12.96 21.06Q-13.38 22.80-13.67 23.69Q-13.95 24.58-14.59 24.58Q-15.23 24.58-16.01 24.22Q-16.79 23.87-16.79 23.37L-16.79 23.37Q-16.79 22.16-14.45 14.81Q-12.11 7.46-12.11 3.77L-12.11 3.77Q-12.11 2.57-13.10 2.46Q-14.09 2.35-14.09 2.07L-14.09 2.07Q-14.09 1.43-13.03 1.43L-13.03 1.43Q-8.27 1.43-8.27 5.33L-8.27 5.33Q-8.27 6.47-10.61 13.71L-10.61 13.71Q-6.78 7.46-2.09 5.12L-2.09 5.12Q-0.96 2.57 1.28 2.57Q3.51 2.57 3.51 2.99ZM44.34-8.51L44.34-8.51Q44.34-9.15 42.56-9.15L42.56-9.15Q38.30-9.15 33.41-7.62Q28.51-6.10 24.99-3.40Q21.48-0.70 21.48 1.96Q21.48 4.62 27.65 11.09Q33.83 17.55 33.83 20.81L33.83 20.81Q33.83 23.16 31.49 24.72Q29.15 26.28 25.88 26.28L25.88 26.28L24.10 26.28Q17.29 26.28 14.59 22.09L14.59 22.09L14.73 21.66Q17.79 23.08 21.26 23.08Q24.74 23.08 28.19 21.74Q31.63 20.39 31.63 18.54L31.63 18.54Q31.63 17.48 28.58 14.21L28.58 14.21Q22.68 8.03 21.23 5.83Q19.77 3.63 19.77 0.58L19.77 0.58Q19.77-7.30 34.47-11.14L34.47-11.14Q41.00-12.63 41.93-12.63Q42.85-12.63 43.63-12.42L43.63-12.42L45.40-10.57Q46.54-9.29 46.68-8.44L46.68-8.44Q46.68-6.95 42.88-4.92Q39.09-2.90 38.23-2.90L38.23-2.90L38.16-3.26L41.78-5.74Q44.34-7.45 44.34-8.51ZM43.56 4.41L43.56 4.41L54.63 3.35Q56.69 3.35 58.11 4.87Q59.53 6.40 59.53 9.03L59.53 9.03Q59.53 9.38 55.42 12.29L55.42 12.29L43.49 20.74Q46.33 19.96 53.71 19.96L53.71 19.96Q59.11 19.96 59.11 24.93L59.11 24.93Q59.11 27.70 57.69 27.70L57.69 27.70Q57.47 27.70 57.47 27.42L57.47 27.42Q58.33 25.00 58.33 24.72L58.33 24.72Q58.33 22.23 50.87 22.23Q43.42 22.23 36.88 25.07L36.88 25.07Q36.67 25.07 36.67 24.11Q36.67 23.16 37.31 22.30L37.31 22.30L37.38 22.23Q38.38 22.09 38.87 21.38L38.87 21.38Q38.87 20.24 48.60 13.68Q58.33 7.11 58.47 6.61L58.47 6.61Q57.55 5.41 55.88 5.41Q54.21 5.41 49.03 6.58Q43.84 7.75 42.99 7.75Q42.14 7.75 42.14 6.29Q42.14 4.84 42.99 4.06L42.99 4.06Q43.42 4.41 43.56 4.41ZM77.71 7.54L77.71 7.54L75.93 7.25Q76.08 8.67 76.08 9.52L76.08 9.52Q76.08 15.42 73.09 19.93Q70.11 24.43 65.64 24.43L65.64 24.43Q59.89 24.43 59.89 18.40L59.89 18.40Q59.89 15.98 60.99 13.25Q62.09 10.52 63.72 8.81L63.72 8.81Q62.94 7.54 62.94 5.48Q62.94 3.42 64.65 1.75Q66.35 0.08 68.83 0.08L68.83 0.08Q73.52 0.08 75.08 4.91L75.08 4.91Q78.42 5.55 78.42 6.47L78.42 6.47Q78.42 7.54 77.71 7.54ZM67.98 2.07L67.98 2.07Q66.49 2.07 65.50 3.42Q64.50 4.77 64.50 6.15Q64.50 7.54 64.72 8.17L64.72 8.17Q69.54 4.55 71.39 4.55L71.39 4.55L71.60 4.55Q70.68 2.07 67.98 2.07ZM67.20 10.59L67.20 10.59Q67.91 11.09 68.34 11.05Q68.76 11.01 68.83 11.01L68.83 11.01Q69.19 11.01 69.19 11.37L69.19 11.37Q69.19 11.94 68.23 11.94Q67.27 11.94 66.49 11.44L66.49 11.44Q62.73 15.84 62.73 19.71Q62.73 23.58 65.60 23.58Q68.48 23.58 71.04 19.00Q73.59 14.42 73.59 10.23L73.59 10.23Q73.59 8.39 72.95 7.25L72.95 7.25Q70.25 7.68 67.20 10.59ZM94.04 13.43L94.04 13.43Q94.47 13.43 94.47 13.75Q94.47 14.07 94.32 14.35L94.32 14.35Q86.87 25.21 81.97 25.21L81.97 25.21Q75.93 25.21 75.93 19.61L75.93 19.61Q75.93 15.35 80.23 9.13Q84.53 2.92 88.50 2.92L88.50 2.92Q89.92 2.92 91.45 3.95Q92.97 4.98 92.97 6.19L92.97 6.19Q92.97 9.52 90.70 9.52L90.70 9.52Q90.06 9.52 89.99 9.17L89.99 9.17Q90.84 7.25 90.84 6.01Q90.84 4.77 90.28 4.77L90.28 4.77Q89.42 4.77 87.44 6.40L87.44 6.40Q83.96 9.24 81.40 13.50Q78.85 17.76 78.85 20.67Q78.85 23.58 81.05 23.58L81.05 23.58Q83.53 23.58 86.66 20.95L86.66 20.95Q88.64 19.11 91.31 16.27Q93.97 13.43 94.04 13.43ZM106.39 1.86Q106.89 1.86 108.38 3.35Q109.87 4.84 109.87 5.23Q109.87 5.62 109.52 5.62L109.52 5.62Q107.96 5.26 107.53 5.26L107.53 5.26Q104.33 5.26 100.96 7.61Q97.59 9.95 97.59 12.36L97.59 12.36Q97.59 12.86 100.93 16.66Q104.26 20.46 104.26 21.84Q104.26 23.23 102.28 24.65Q100.29 26.07 98.26 26.07Q96.24 26.07 94.82 25.46Q93.40 24.86 93.40 24.22L93.40 24.22Q101.57 22.52 101.57 20.10L101.57 20.10Q101.57 19.61 99.65 17.90L99.65 17.90Q95.96 14.64 95.96 10.59L95.96 10.59Q95.96 7.75 99.61 4.80Q103.27 1.86 106.39 1.86L106.39 1.86Z"/></g>
</svg>